<svg width="960" height="640" viewBox="0 0 960 640" fill="none" xmlns="http://www.w3.org/2000/svg">
  <defs>
    <linearGradient id="bg" x1="96" y1="56" x2="900" y2="612" gradientUnits="userSpaceOnUse">
      <stop stop-color="#6D28D9"/>
      <stop offset="1" stop-color="#111827"/>
    </linearGradient>
    <linearGradient id="logo" x1="0" y1="0" x2="1" y2="1">
      <stop stop-color="#FB923C"/>
      <stop offset="1" stop-color="#F97316"/>
    </linearGradient>
  </defs>
  <rect width="960" height="640" rx="32" fill="url(#bg)"/>
  <rect x="68" y="78" width="824" height="484" rx="28" fill="rgba(255,255,255,0.04)" stroke="rgba(255,255,255,0.18)"/>
  <rect x="128" y="148" width="220" height="220" rx="36" fill="url(#logo)"/>
  <path d="M182 292L220 210L258 288L298 228" stroke="#FFF8F1" stroke-width="16" stroke-linecap="round" stroke-linejoin="round"/>
  <rect x="392" y="182" width="430" height="20" rx="10" fill="#E5E7EB" fill-opacity="0.85"/>
  <rect x="392" y="230" width="312" height="16" rx="8" fill="#CBD5E1" fill-opacity="0.8"/>
  <rect x="392" y="266" width="372" height="16" rx="8" fill="#CBD5E1" fill-opacity="0.7"/>
  <rect x="128" y="410" width="240" height="78" rx="18" fill="#F97316"/>
  <rect x="396" y="410" width="160" height="20" rx="10" fill="#FDBA74" fill-opacity="0.75"/>
  <rect x="396" y="446" width="252" height="20" rx="10" fill="#FDBA74" fill-opacity="0.5"/>
</svg>
